<svg width="71" height="70" viewBox="0 0 71 70" fill="none" xmlns="http://www.w3.org/2000/svg">
<rect x="0.5" width="70" height="70" rx="8" fill="#008145" fill-opacity="0.05"/>
<path d="M43.4726 35.3699C40.7603 32.9589 38.411 30.6849 36.4247 28.5479C34.4384 26.411 33.4452 24.3562 33.4452 22.3836C33.4452 20.8767 33.9658 19.6027 35.0068 18.5616C36.0479 17.5205 37.3356 17 38.8699 17C39.6644 17 40.4589 17.2123 41.2534 17.637C42.0479 18.0616 42.7877 18.6301 43.4726 19.3425C44.1301 18.6301 44.8562 18.0616 45.6507 17.637C46.4452 17.2123 47.2397 17 48.0342 17C49.5685 17 50.863 17.5205 51.9178 18.5616C52.9726 19.6027 53.5 20.8767 53.5 22.3836C53.5 24.3562 52.5 26.411 50.5 28.5479C48.5 30.6849 46.1575 32.9589 43.4726 35.3699ZM43.4726 31.2192C45.2534 29.6027 46.863 28.0069 48.3014 26.4315C49.7397 24.8562 50.4589 23.5205 50.4589 22.4247C50.4589 21.7123 50.2397 21.1301 49.8014 20.6781C49.363 20.226 48.774 20 48.0342 20C47.6233 20 47.1986 20.1027 46.7603 20.3082C46.3219 20.5137 45.8699 20.9041 45.4041 21.4795L43.4726 23.9041L41.5 21.4795C41.0616 20.9041 40.6233 20.5137 40.1849 20.3082C39.7466 20.1027 39.3082 20 38.8699 20C38.1575 20 37.5753 20.226 37.1233 20.6781C36.6712 21.1301 36.4452 21.7123 36.4452 22.4247C36.4452 23.4932 37.1712 24.8219 38.6233 26.411C40.0753 28 41.6918 29.6027 43.4726 31.2192ZM39.6507 52.5479L27.1164 48.9726V51.2329H17.5V33.9726H30.8151L41.3767 37.9589C42.226 38.2603 42.9384 38.7603 43.5137 39.4589C44.089 40.1575 44.3767 41.1507 44.3767 42.4384H48.5274C49.8151 42.4384 50.8973 42.8219 51.774 43.589C52.6507 44.3562 53.089 45.4932 53.089 47V48.4795L39.6507 52.5479ZM20.5 48.2329H24.0753V36.9726H20.5V48.2329ZM39.4863 49.4658L50.0069 46.2603C49.8425 45.7397 49.637 45.3836 49.3904 45.1918C49.1438 45 48.8562 44.9041 48.5274 44.9041H39.9795C39.2123 44.9041 38.4589 44.8493 37.7192 44.7397C36.9795 44.6301 36.3356 44.4795 35.7877 44.2877L32.4178 43.2603L33.3219 40.8767L36.1986 41.8219C36.9658 42.0685 37.6575 42.2329 38.274 42.3151C38.8904 42.3973 39.8699 42.4384 41.2123 42.4384C41.2123 42.1096 41.1507 41.7877 41.0274 41.4726C40.9041 41.1575 40.6918 40.9315 40.3904 40.7945L30.3219 36.9726H27.1164V45.8082L39.4863 49.4658Z" fill="#008145"/>
</svg>
