<svg width="184" height="75" viewBox="0 0 184 75" fill="none" xmlns="http://www.w3.org/2000/svg">
<path opacity="0.923" fill-rule="evenodd" clip-rule="evenodd" d="M76.0596 0.00830437C79.2175 -0.0138685 82.3755 0.00830436 85.5334 0.075495C86.1892 0.269004 86.8389 0.470576 87.482 0.68021C87.5142 0.746057 87.5586 0.801825 87.6163 0.848187C88.1552 0.98324 88.6706 1.18481 89.1617 1.4529C89.6522 1.76601 90.1447 2.07979 90.6399 2.39357C90.7494 2.42649 90.8616 2.43792 90.9759 2.42717C90.9759 2.51653 90.9759 2.60656 90.9759 2.69593C91.2272 2.78865 91.4516 2.93445 91.6478 3.13267C91.7499 3.20053 91.8621 3.23412 91.9837 3.23345C92.1672 3.56201 92.4359 3.81935 92.79 4.00614C93.05 4.24333 93.2852 4.50134 93.4955 4.77884C93.4545 3.39269 93.4545 2.00386 93.4955 0.61302C93.5634 0.494764 93.6642 0.416151 93.7979 0.377853C95.948 0.332835 98.0981 0.332835 100.248 0.377853C100.461 0.411448 100.584 0.534407 100.618 0.747401C100.663 5.6073 100.663 10.4679 100.618 15.3278C99.2961 16.7166 97.9966 18.1276 96.7207 19.5608C95.9406 20.3408 95.1565 21.125 94.369 21.9124C94.2373 22.4137 93.9128 22.6374 93.3947 22.5843C93.4203 22.1489 93.4989 21.7236 93.6299 21.3077C93.724 19.6636 93.6568 18.0281 93.4283 16.4028C93.3611 16.3356 93.2939 16.2684 93.2268 16.2012C93.2046 15.9775 93.1817 15.7531 93.1596 15.5293C93.0017 14.9602 92.8223 14.4005 92.622 13.8496C92.313 13.437 92.0664 12.9889 91.8829 12.5058C91.5141 12.0361 91.1781 11.5436 90.8751 11.0276C90.0332 10.2307 89.1933 9.43582 88.3554 8.64229C88.0558 8.45752 87.7648 8.26737 87.482 8.07117C84.2817 6.51437 80.9329 6.17842 77.437 7.06332C77.3584 7.09758 77.3026 7.15335 77.269 7.23129C77.0211 7.26892 76.7751 7.31394 76.5299 7.36567C76.1556 7.53903 75.7753 7.69558 75.3877 7.83601C74.9791 8.15315 74.531 8.42191 74.0438 8.64229C73.6958 8.99101 73.3148 9.30412 72.9016 9.58296C72.737 9.84568 72.5126 10.0472 72.2297 10.1877C71.2662 11.2076 70.5049 12.3606 69.9452 13.648C69.8955 13.7011 69.8391 13.7454 69.7772 13.7824C69.3862 14.844 69.0502 15.919 68.7694 17.0075C68.0578 21.9521 69.5246 26.0843 73.1704 29.4042C74.0667 30.1225 75.0295 30.7272 76.0596 31.2183C76.3041 31.1968 76.4829 31.2869 76.5971 31.4871C77.1575 31.6369 77.7172 31.7935 78.2769 31.9574C78.8869 32.0105 79.4917 32.1005 80.091 32.2262C80.6285 32.2712 81.166 32.2712 81.7036 32.2262C82.4366 32.0979 83.1757 32.0085 83.9209 31.9574C84.5545 31.8116 85.182 31.6544 85.8022 31.4871C86.6172 31.0235 87.4457 30.5753 88.2882 30.1433C88.7707 29.8013 89.241 29.4432 89.6993 29.0682C95.4951 22.9586 101.285 16.8557 107.068 10.7588C108.433 9.21745 109.844 7.71708 111.301 6.25703C111.368 6.14482 111.435 6.03328 111.503 5.92108C112.121 5.28075 112.759 4.66461 113.418 4.07333C113.708 3.87176 114 3.67019 114.291 3.46862C114.347 3.40076 114.37 3.32214 114.358 3.23345C114.851 2.97746 115.322 2.6751 115.769 2.32638C116.383 2.06299 116.965 1.74921 117.516 1.38571C117.999 1.16465 118.491 0.985927 118.994 0.848187C119.039 0.780996 119.084 0.713806 119.129 0.646615C119.285 0.624442 119.443 0.601597 119.599 0.579424C120.09 0.404057 120.582 0.23608 121.077 0.075495C124.415 -0.0138685 127.751 -0.0138685 131.089 0.075495C131.584 0.23608 132.076 0.404057 132.567 0.579424C132.745 0.61302 132.924 0.62377 133.104 0.61302C133.093 0.701711 133.115 0.780324 133.172 0.848187C133.729 0.991303 134.266 1.19287 134.784 1.4529C134.947 1.61147 135.126 1.74585 135.322 1.85605C135.744 2.02201 136.147 2.22358 136.531 2.46076C136.876 2.77924 137.257 3.04801 137.673 3.26705C139.267 4.55912 140.701 6.02589 141.974 7.66803C142.518 8.50993 143.044 9.36123 143.553 10.2213C143.767 10.7077 143.968 11.2009 144.157 11.6995C144.422 11.6141 144.601 11.4347 144.695 11.1619C146.412 9.47479 148.07 7.72783 149.667 5.92108C150.304 5.26194 150.964 4.62363 151.649 4.00614C152.294 3.45921 152.966 2.94386 153.665 2.46076C154.077 2.23366 154.503 2.03208 154.941 1.85605C155.121 1.72166 155.299 1.58728 155.479 1.4529C156.004 1.21102 156.541 1.00944 157.091 0.848187C157.181 0.803169 157.248 0.735978 157.293 0.646615C157.943 0.456466 158.593 0.265644 159.242 0.075495C162.556 -0.0138685 165.871 -0.0138685 169.186 0.075495C169.867 0.248847 170.539 0.450418 171.201 0.68021C171.234 0.746057 171.278 0.801825 171.336 0.848187C171.895 1.00071 172.432 1.2137 172.948 1.4865C173.497 1.87755 174.079 2.2135 174.695 2.49436C175.428 2.96133 176.122 3.47601 176.778 4.03974C177.432 4.65991 178.07 5.28747 178.693 5.92108C179.279 6.61851 179.839 7.33544 180.373 8.07117C180.631 8.54218 180.922 8.98967 181.246 9.41499C181.478 9.85509 181.691 10.3026 181.885 10.7588C181.934 10.8119 181.991 10.8562 182.053 10.8932C182.264 11.4925 182.466 12.0972 182.657 12.7073C182.725 12.7967 182.792 12.7967 182.859 12.7073C182.901 12.8558 182.89 13.0016 182.825 13.1441C182.878 13.3047 182.956 13.4505 183.061 13.5808C183.113 14.117 183.237 14.6323 183.43 15.1262C183.519 17.9932 183.519 20.8596 183.43 23.7266C183.231 24.1996 183.108 24.6921 183.061 25.2048C182.999 25.2605 182.954 25.3277 182.926 25.4063C182.904 25.6079 182.881 25.8095 182.859 26.0111C182.792 25.9217 182.725 25.9217 182.657 26.0111C182.577 26.3813 182.465 26.7394 182.321 27.0861C181.56 28.6994 180.665 30.2226 179.634 31.6551C178.749 32.5843 177.865 33.5142 176.98 34.4435C176.163 35.0872 175.335 35.7141 174.494 36.3248C174.077 36.5042 173.696 36.7394 173.352 37.0303C172.818 37.2635 172.281 37.4765 171.739 37.6686C171.65 37.7136 171.582 37.7808 171.537 37.8702C170.698 38.1148 169.847 38.3163 168.984 38.4749C168.893 38.5267 168.838 38.6053 168.816 38.7101C168.779 38.6751 168.734 38.6523 168.682 38.6429C168.121 38.6758 167.572 38.7766 167.036 38.9453C166.151 39.0024 165.266 39.0588 164.382 39.1132C163.407 39.0595 162.433 39.0037 161.459 38.9453C161.18 38.9197 160.911 38.8525 160.653 38.7437C160.339 38.7215 160.026 38.6987 159.712 38.6765C159.667 38.5871 159.6 38.5199 159.51 38.4749C159.309 38.4527 159.107 38.4299 158.906 38.4077C158.248 38.2539 157.599 38.0745 156.957 37.8702C156.92 37.8084 156.876 37.7519 156.823 37.7022C154.891 37.0276 153.166 36.0084 151.649 34.6451C151.582 34.6 151.515 34.6 151.447 34.6451C151.515 40.027 151.537 45.413 151.515 50.8044C149.163 50.8044 146.811 50.8044 144.46 50.8044C144.404 42.7435 144.37 34.6807 144.359 26.6158C143.305 29.1462 141.827 31.4085 139.924 33.402C138.473 34.807 136.872 36.0272 135.12 37.0639C134.612 37.2843 134.097 37.4859 133.575 37.6686C133.508 37.7358 133.44 37.803 133.373 37.8702C132.537 38.1275 131.686 38.3291 130.82 38.4749C130.731 38.5421 130.64 38.6093 130.551 38.6765C130.26 38.6987 129.969 38.7215 129.678 38.7437C129.424 38.8666 129.155 38.9338 128.871 38.9453C127.954 39.0051 127.035 39.0608 126.117 39.1132C125.22 39.0628 124.325 39.0071 123.429 38.9453C123.123 38.9379 122.832 38.8707 122.555 38.7437C122.242 38.7215 121.929 38.6987 121.615 38.6765C121.525 38.6093 121.435 38.5421 121.346 38.4749C120.485 38.3163 119.634 38.1148 118.793 37.8702C118.748 37.7808 118.681 37.7136 118.591 37.6686C118.038 37.504 117.501 37.3024 116.979 37.0639C116.406 36.6661 115.801 36.3416 115.164 36.0896C115.176 36.001 115.154 35.9223 115.097 35.8545C114.817 35.6583 114.526 35.4796 114.224 35.317C113.982 35.0052 113.69 34.7808 113.35 34.6451C113.397 34.7169 113.43 34.7949 113.451 34.8802C113.506 40.1889 113.495 45.497 113.418 50.8044C111.044 50.8044 108.669 50.8044 106.295 50.8044C106.284 41.6443 106.295 32.4835 106.329 23.3234C106.519 23.1776 106.71 23.0325 106.9 22.8867C108.169 21.6517 109.4 20.3865 110.596 19.0904C111.356 18.3634 112.107 17.6243 112.846 16.8731C112.98 16.7173 113.059 16.5385 113.082 16.3356C114.097 16.0789 114.31 16.4149 113.72 17.3435C113.669 17.6485 113.681 17.9509 113.753 18.2505C113.637 18.6571 113.569 19.0716 113.552 19.4936C113.632 20.0156 113.699 20.5424 113.753 21.0726C113.726 21.1492 113.704 21.2278 113.686 21.3077C113.885 21.899 114.03 22.5037 114.123 23.1219C114.244 23.2569 114.278 23.4027 114.224 23.5586C114.533 24.2272 114.813 24.9105 115.064 25.6079C115.739 26.9027 116.601 28.0557 117.651 29.0682C118.909 30.1225 120.298 30.9287 121.816 31.4871C124.642 32.2484 127.464 32.2484 130.282 31.4871C130.327 31.4199 130.372 31.3527 130.417 31.2855C130.788 31.1894 131.146 31.0551 131.492 30.8824C132.471 30.324 133.389 29.6629 134.247 28.9003C134.673 28.4628 135.087 28.0154 135.49 27.5564C135.767 27.1049 136.081 26.6796 136.43 26.2798C136.597 25.8464 136.776 25.4211 136.968 25.0032C137.057 24.9582 137.124 24.891 137.169 24.8016C137.585 23.5841 137.921 22.3525 138.177 21.1061C138.222 19.9417 138.222 18.7767 138.177 17.6122C138.05 17.2198 137.982 16.8167 137.976 16.4028C137.879 16.2839 137.812 16.1495 137.774 15.9997C137.66 15.4796 137.526 14.9649 137.371 14.4543C136.562 12.5259 135.386 10.8569 133.843 9.44858C133.555 9.29404 133.309 9.09247 133.104 8.84387C132.59 8.50859 132.052 8.2284 131.492 8.00398C131.492 7.93679 131.492 7.8696 131.492 7.80241C130.875 7.59614 130.248 7.40532 129.61 7.23129C129.551 7.12513 129.462 7.05794 129.342 7.02972C127.103 6.54326 124.863 6.54326 122.623 7.02972C121.908 7.29781 121.191 7.56657 120.473 7.83601C118.424 9.2114 116.576 10.8347 114.929 12.7073C107.641 19.9283 100.373 27.1741 93.126 34.4435C92.835 34.6451 92.5434 34.8466 92.2525 35.0482C92.1961 35.1161 92.1739 35.1947 92.1853 35.2834C91.7519 35.4446 91.371 35.6905 91.0431 36.0225C89.3902 37.0901 87.621 37.885 85.735 38.4077C85.5334 38.4299 85.3319 38.4527 85.1303 38.4749C85.0853 38.5421 85.0409 38.6093 84.9959 38.6765C84.6821 38.6987 84.369 38.7215 84.0552 38.7437C83.8436 38.8512 83.6198 38.9184 83.3833 38.9453C81.5692 39.1677 79.755 39.1677 77.9409 38.9453C77.4652 38.7753 76.9727 38.6859 76.4627 38.6765C76.3377 38.6308 76.2255 38.5636 76.1268 38.4749C75.3339 38.3251 74.5505 38.1343 73.7751 37.9038C73.6642 37.8514 73.5749 37.7734 73.5063 37.6686C72.9567 37.4839 72.4192 37.2594 71.8937 36.9967C70.3806 36.1159 68.9696 35.0858 67.6607 33.906C66.7328 32.9102 65.8258 31.8916 64.9395 30.8488C64.5767 30.3294 64.2407 29.7919 63.9317 29.2362C63.8195 28.9896 63.7079 28.7437 63.5957 28.4971C63.5285 28.4521 63.4613 28.4077 63.3941 28.3627C63.1825 27.8084 62.9809 27.248 62.7894 26.683C62.7222 26.6158 62.655 26.5486 62.5878 26.4814C62.4017 25.8962 62.2109 25.3143 62.0167 24.7344C61.9274 21.1283 61.9274 17.5229 62.0167 13.9168C62.2042 13.2818 62.4058 12.6549 62.6214 12.0354C62.7337 12.0132 62.8008 11.9461 62.823 11.8338C63.0239 11.3219 63.2141 10.8072 63.3941 10.2885C63.4613 10.2434 63.5285 10.1991 63.5957 10.1541C63.8564 9.60178 64.1473 9.06425 64.4692 8.54151C64.8911 7.91798 65.3393 7.31327 65.813 6.72736C66.3189 6.17707 66.8229 5.62813 67.3248 5.08119C68.0256 4.50604 68.6975 3.90133 69.3405 3.26705C69.665 3.04868 70.001 2.84711 70.3484 2.66233C70.3934 2.59514 70.4377 2.52795 70.4827 2.46076C70.9007 2.24038 71.3267 2.0388 71.7594 1.85605C71.9388 1.72166 72.1175 1.58728 72.2969 1.4529C72.8102 1.19019 73.3477 0.988615 73.9095 0.848187C73.9545 0.780996 73.9988 0.713806 74.0438 0.646615C74.5706 0.473263 75.1081 0.338882 75.6564 0.243471C75.8257 0.203829 75.9601 0.125888 76.0596 0.00830437ZM163.542 6.66017C167.792 6.5352 171.218 8.12493 173.822 11.4307C174.943 13.0453 175.715 14.7922 176.14 16.6716C176.511 19.1328 176.354 21.5516 175.67 23.9282C175.471 24.1028 175.381 24.3266 175.401 24.6001C174.378 26.8093 172.889 28.6349 170.933 30.0761C170.316 30.5061 169.666 30.8871 168.984 31.2183C168.757 31.2062 168.578 31.2842 168.447 31.4535C166.787 31.9675 165.085 32.1577 163.34 32.0246C159.625 31.8546 156.612 30.3207 154.303 27.4221C153.84 26.7192 153.415 26.003 153.026 25.272C152.927 25.0281 152.826 24.7821 152.724 24.5329C152.738 24.4932 152.76 24.4596 152.791 24.4321C152.586 24.0276 152.395 23.6137 152.22 23.1891C152.281 22.8948 152.213 22.626 152.019 22.3828C151.616 20.2931 151.65 18.2102 152.119 16.134C151.851 16.208 151.582 16.2866 151.313 16.3692C151.16 16.474 151.083 16.6192 151.078 16.806C149.254 18.6295 147.429 20.4551 145.602 22.282C145.54 22.3068 145.484 22.3404 145.434 22.3828C145.389 21.7109 145.389 21.039 145.434 20.3671C149.023 16.6884 152.663 13.0487 156.352 9.44858C156.75 9.25239 157.086 8.98362 157.36 8.64229C157.818 8.4246 158.243 8.15584 158.637 7.83601C159.565 7.45437 160.506 7.14059 161.459 6.89534C162.161 6.79859 162.856 6.71997 163.542 6.66017Z" fill="#008145"/>
<path opacity="0.809" fill-rule="evenodd" clip-rule="evenodd" d="M106.43 0.344626C108.647 0.333204 110.865 0.344626 113.082 0.378221C113.25 0.456834 113.373 0.579793 113.452 0.747769C113.497 1.17309 113.497 1.59907 113.452 2.02439C113.311 2.23806 113.154 2.43963 112.981 2.62911C112.949 2.69294 112.937 2.76013 112.948 2.83068C112.647 2.96237 112.389 3.16394 112.175 3.43539C111.888 3.76731 111.597 4.10327 111.301 4.44325C109.763 5.9584 108.252 7.49303 106.766 9.04581C106.605 9.10023 106.448 9.08948 106.296 9.01221C106.302 6.71429 106.28 4.41839 106.229 2.12518C106.282 1.57892 106.315 1.02997 106.329 0.479007C106.378 0.442724 106.411 0.397707 106.43 0.344626Z" fill="#008145"/>
<path opacity="0.786" fill-rule="evenodd" clip-rule="evenodd" d="M144.593 0.344626C146.811 0.333204 149.028 0.344626 151.245 0.378221C151.581 0.622795 151.737 0.958748 151.716 1.38608C151.683 1.73144 151.582 2.05597 151.413 2.36034C149.277 4.59913 147.116 6.81642 144.929 9.01221C144.706 9.10157 144.481 9.10157 144.257 9.01221C144.168 8.42967 144.168 7.8478 144.257 7.26526C144.312 7.39426 144.345 7.52864 144.358 7.6684C144.481 6.81844 144.481 5.96713 144.358 5.11516C144.347 5.36443 144.313 5.61102 144.257 5.85425C144.168 4.17449 144.168 2.49472 144.257 0.81496C144.313 1.01317 144.346 1.21474 144.358 1.41968C144.354 1.03938 144.431 0.680579 144.593 0.344626Z" fill="#008145"/>
<path opacity="0.992" fill-rule="evenodd" clip-rule="evenodd" d="M17.8727 0.747477C20.6604 0.587563 23.3481 1.0243 25.9356 2.05769C28.517 3.19456 30.4877 4.99728 31.8483 7.46653C33.9373 4.58406 36.6921 2.62478 40.1128 1.58736C44.2867 0.390695 48.4303 0.48073 52.543 1.85612C56.7136 3.60912 59.3454 6.68847 60.4379 11.0948C60.7584 12.4205 60.96 13.7643 61.0426 15.1263C61.0762 22.741 61.0877 30.3563 61.0762 37.9711C58.8368 37.9711 56.5966 37.9711 54.3572 37.9711C54.3686 30.7595 54.3572 23.5473 54.3236 16.3357C54.2571 14.0969 53.6302 12.0362 52.4422 10.1542C50.9567 8.24057 48.9967 7.1541 46.5631 6.89541C44.2678 6.60851 42.0506 6.89945 39.9112 7.76889C37.3721 9.0099 35.6359 10.9692 34.7039 13.6481C34.1879 15.2647 33.9191 16.9216 33.8976 18.6202C33.8641 25.0705 33.8526 31.5208 33.8641 37.9711C31.6246 37.9711 29.3845 37.9711 27.145 37.9711C27.1564 30.6695 27.145 23.3685 27.1114 16.0669C27.0146 13.6709 26.2534 11.5208 24.8269 9.61663C23.3548 8.01951 21.5292 7.11244 19.3509 6.89541C16.4926 6.51646 13.8278 7.05398 11.3552 8.50799C8.86983 10.3289 7.40306 12.7813 6.95423 15.8654C6.85949 16.4217 6.7923 16.9821 6.75265 17.5451C6.71906 24.3535 6.70764 31.1626 6.71906 37.9711C4.4796 37.9711 2.23946 37.9711 0 37.9711C0 25.6752 0 13.3793 0 1.08343C2.1501 1.08343 4.3002 1.08343 6.4503 1.08343C6.43887 2.85323 6.4503 4.62236 6.48389 6.39149C8.61316 3.62861 11.4016 1.89308 14.8491 1.18422C15.8583 0.977941 16.8662 0.832137 17.8727 0.747477Z" fill="#008145"/>
<path opacity="0.796" fill-rule="evenodd" clip-rule="evenodd" d="M100.316 29.438C100.432 29.4796 100.533 29.5468 100.618 29.6396C100.649 32.1646 100.661 34.6842 100.651 37.1985C100.601 37.4982 100.567 37.8005 100.551 38.1056C100.49 38.0283 100.433 38.0391 100.383 38.1392C98.2333 38.2319 96.0832 38.2541 93.9324 38.2064C93.7335 38.1802 93.5884 38.0794 93.4957 37.904C93.4507 37.3886 93.4507 36.874 93.4957 36.3586C93.6301 36.1349 93.7644 35.9105 93.8988 35.6867C95.8447 33.761 97.7932 31.8353 99.7444 29.9083C99.7773 29.8216 99.7887 29.7316 99.778 29.6396C100.002 29.6718 100.181 29.6046 100.316 29.438Z" fill="#008145"/>
<path opacity="0.905" fill-rule="evenodd" clip-rule="evenodd" d="M118 64C118.272 64 118.545 64 118.817 64C118.803 65.0895 118.817 66.1782 118.858 67.2668C119.185 66.7833 119.634 66.4697 120.205 66.3276C122.364 66.0303 123.535 66.9557 123.717 69.1044C123.58 71.2442 122.436 72.1973 120.287 71.9629C119.678 71.8428 119.201 71.5292 118.858 71.0237C118.817 71.3218 118.803 71.6215 118.817 71.922C118.545 71.922 118.272 71.922 118 71.922C118 69.2816 118 66.6404 118 64ZM120.287 67.0218C121.595 66.8242 122.453 67.3411 122.859 68.5736C123.101 70.162 122.435 71.0604 120.858 71.2687C119.593 71.1372 118.911 70.4291 118.817 69.1452C118.867 68.1146 119.357 67.4065 120.287 67.0218Z" fill="#008145"/>
<path opacity="0.891" fill-rule="evenodd" clip-rule="evenodd" d="M133.925 64.9799C134.08 64.9636 134.202 65.0175 134.293 65.1432C135.184 66.9531 136.096 68.7498 137.029 70.5335C137.936 68.7506 138.821 66.9539 139.683 65.1432C139.752 65.0199 139.846 64.9791 139.969 65.0207C140.272 67.1246 140.558 69.2341 140.826 71.3502C140.865 71.467 140.932 71.5625 141.03 71.636C141.294 71.7341 141.566 71.7749 141.847 71.7586C141.847 71.8402 141.847 71.9219 141.847 72.0036C141.13 72.0411 140.422 71.9872 139.724 71.8402C139.796 71.7545 139.85 71.6597 139.887 71.5544C139.729 70.0655 139.551 68.5824 139.356 67.1033C138.587 68.7776 137.757 70.411 136.865 72.0036C136.758 71.9374 136.663 71.8557 136.579 71.7586C135.774 70.2566 135.012 68.7327 134.293 67.185C134.125 68.5995 133.975 70.0149 133.843 71.4319C133.878 71.5274 133.932 71.6091 134.007 71.6769C134.21 71.7194 134.4 71.788 134.579 71.8811C134.225 71.9742 133.857 72.015 133.476 72.0036C133.135 71.9766 132.796 71.9488 132.455 71.9219C132.582 71.7888 132.746 71.721 132.945 71.7177C133.043 71.6442 133.111 71.5487 133.149 71.4319C133.405 69.279 133.664 67.1286 133.925 64.9799Z" fill="#008145"/>
<path opacity="0.889" fill-rule="evenodd" clip-rule="evenodd" d="M159.488 64.9801C160.204 64.9548 160.911 65.0095 161.612 65.1435C161.605 65.5575 161.55 65.9659 161.449 66.3685C161.33 66.1341 161.194 65.903 161.04 65.6743C160.288 65.2431 159.594 65.3109 158.958 65.8785C158.782 66.273 158.81 66.6536 159.039 67.0219C159.56 67.4931 160.119 67.9154 160.713 68.2878C161.03 68.5761 161.315 68.8897 161.571 69.227C162.135 70.6726 161.685 71.6118 160.223 72.0446C159.679 72.0994 159.135 72.0994 158.59 72.0446C158.329 72.012 158.098 71.9172 157.896 71.7588C157.831 71.2867 157.872 70.8237 158.018 70.3704C158.131 70.7436 158.321 71.0842 158.59 71.3913C159.42 71.847 160.169 71.7523 160.836 71.1054C161.108 70.6971 161.108 70.2887 160.836 69.8804C160.271 69.3152 159.658 68.8113 158.998 68.3695C158.046 67.6254 157.842 66.7132 158.386 65.6335C158.704 65.3191 159.071 65.101 159.488 64.9801Z" fill="#008145"/>
<path opacity="0.889" fill-rule="evenodd" clip-rule="evenodd" d="M162.755 64.98C164.657 65.1686 166.562 65.1956 168.472 65.0617C168.486 65.4708 168.472 65.8792 168.431 66.2867C168.398 66.3243 168.357 66.3512 168.309 66.3684C168.217 66.2157 168.149 66.0523 168.105 65.8784C167.97 65.7787 167.821 65.7109 167.656 65.6742C167.085 65.6333 166.513 65.6195 165.94 65.6333C165.918 67.5951 165.958 69.5552 166.063 71.5136C166.279 71.7203 166.537 71.8019 166.839 71.7586C166.839 71.8403 166.839 71.922 166.839 72.0036C166.02 72.0306 165.204 72.0036 164.389 71.922C164.488 71.7938 164.624 71.726 164.797 71.7178C164.911 71.6222 164.979 71.4997 165.001 71.3503C165.042 69.4449 165.056 67.5395 165.042 65.6333C164.354 65.5999 163.674 65.6407 163 65.7559C162.873 65.9437 162.737 66.1201 162.592 66.2867C162.508 65.8359 162.563 65.4006 162.755 64.98Z" fill="#008145"/>
<path opacity="0.891" fill-rule="evenodd" clip-rule="evenodd" d="M175.577 64.9804C175.732 64.9641 175.854 65.018 175.945 65.1437C176.836 66.9535 177.748 68.7503 178.681 70.534C179.588 68.7511 180.474 66.9544 181.335 65.1437C181.404 65.0204 181.499 64.9796 181.621 65.0212C181.924 67.1251 182.21 69.2346 182.479 71.3507C182.517 71.4675 182.585 71.563 182.683 71.6365C182.947 71.7345 183.219 71.7754 183.5 71.759C183.5 71.8407 183.5 71.9224 183.5 72.0041C182.782 72.0416 182.074 71.9877 181.376 71.8407C181.448 71.755 181.503 71.6602 181.539 71.5549C181.381 70.066 181.204 68.5829 181.009 67.1038C180.239 68.7781 179.409 70.4115 178.518 72.0041C178.411 71.9379 178.315 71.8562 178.232 71.759C177.427 70.2571 176.665 68.7331 175.945 67.1855C175.778 68.6 175.627 70.0154 175.496 71.4324C175.53 71.5279 175.585 71.6096 175.659 71.6774C175.863 71.7198 176.053 71.7884 176.231 71.8815C175.877 71.9747 175.51 72.0155 175.128 72.0041C174.788 71.9771 174.448 71.9493 174.107 71.9224C174.235 71.7893 174.398 71.7215 174.597 71.7182C174.695 71.6447 174.763 71.5491 174.802 71.4324C175.057 69.2795 175.316 67.1291 175.577 64.9804Z" fill="#008145"/>
<path opacity="0.902" fill-rule="evenodd" clip-rule="evenodd" d="M142.255 65.062C143.589 65.1698 144.923 65.1698 146.257 65.062C146.22 65.4426 146.179 65.824 146.135 66.2054C146.101 66.243 146.061 66.2699 146.012 66.2871C145.967 66.0167 145.83 65.8126 145.604 65.6745C145.036 65.5741 144.465 65.5333 143.889 65.552C143.875 66.3965 143.889 67.2402 143.93 68.0838C144.044 68.1345 144.167 68.1614 144.297 68.1655C144.786 68.1132 145.276 68.0724 145.767 68.043C146.025 67.7416 146.133 67.7825 146.094 68.1655C146.065 68.5559 145.998 68.9373 145.89 69.3089C145.815 69.0949 145.719 68.8907 145.604 68.6964C145.038 68.5869 144.466 68.5461 143.889 68.5738C143.851 69.5082 143.892 70.4335 144.011 71.3506C144.692 71.67 145.372 71.67 146.053 71.3506C146.171 71.1424 146.266 70.9243 146.339 70.6973C146.461 70.7667 146.515 70.8753 146.502 71.024C146.477 71.3555 146.395 71.6683 146.257 71.9632C144.946 71.9762 143.639 71.9901 142.337 72.004C142.337 71.9223 142.337 71.8407 142.337 71.759C142.586 71.8113 142.763 71.7296 142.868 71.514C142.957 70.4825 142.998 69.4477 142.991 68.4105C143 67.4264 142.959 66.4463 142.868 65.4704C142.643 65.3732 142.412 65.2915 142.174 65.2254C142.203 65.1698 142.231 65.1151 142.255 65.062Z" fill="#008145"/>
<path opacity="0.91" fill-rule="evenodd" clip-rule="evenodd" d="M147.646 65.062C148.436 65.1666 149.225 65.1666 150.015 65.062C150.654 65.0685 151.254 65.218 151.811 65.5112C152.354 66.0388 152.531 66.6783 152.342 67.4305C152.113 67.9834 151.773 68.4595 151.321 68.8597C152.023 69.7793 152.785 70.6507 153.608 71.4732C154.001 71.7492 154.423 71.8178 154.874 71.6773C154.97 71.3874 155.024 71.0885 155.037 70.779C155.092 69.1455 155.092 67.5121 155.037 65.8787C155.01 65.7423 154.983 65.6068 154.956 65.4704C154.743 65.3903 154.539 65.2956 154.343 65.1845C155.107 65.1167 155.869 65.1298 156.63 65.2254C156.36 65.2711 156.155 65.4075 156.017 65.6337C155.963 67.5121 155.963 69.3906 156.017 71.269C156.039 71.3996 156.08 71.5222 156.14 71.6365C156.347 71.7255 156.565 71.7802 156.793 71.7998C156.831 71.8333 156.858 71.8742 156.875 71.9223C156.262 71.9493 155.65 71.9771 155.037 72.004C154.311 72.013 153.59 71.9722 152.873 71.8815C152.696 71.759 152.519 71.6365 152.342 71.514C151.73 70.7381 151.117 69.9622 150.505 69.1864C150.119 69.1684 149.738 69.1276 149.361 69.0639C149.313 69.081 149.272 69.108 149.239 69.1455C149.231 69.9075 149.257 70.6703 149.32 71.4323C149.351 71.5075 149.391 71.5752 149.443 71.6365C149.694 71.71 149.939 71.7917 150.178 71.8815C149.375 72.0016 148.558 72.0424 147.728 72.004C147.728 71.9223 147.728 71.8407 147.728 71.759C147.977 71.8113 148.153 71.7296 148.259 71.514C148.348 70.4825 148.389 69.4477 148.381 68.4105C148.39 67.4264 148.349 66.4463 148.259 65.4704C148.034 65.3732 147.803 65.2915 147.564 65.2254C147.594 65.1698 147.622 65.1151 147.646 65.062ZM149.77 65.4704C150.639 65.4565 151.198 65.8648 151.444 66.6954C151.647 68.4807 150.912 69.0794 149.239 68.4922C149.184 67.5391 149.184 66.5868 149.239 65.6337C149.425 65.5831 149.601 65.5292 149.77 65.4704Z" fill="#008145"/>
<path opacity="0.902" fill-rule="evenodd" clip-rule="evenodd" d="M169.208 65.062C170.541 65.1698 171.875 65.1698 173.21 65.062C173.172 65.4426 173.131 65.824 173.087 66.2054C173.054 66.243 173.013 66.2699 172.964 66.2871C172.919 66.0167 172.782 65.8126 172.556 65.6745C171.989 65.5741 171.417 65.5333 170.841 65.552C170.827 66.3965 170.841 67.2402 170.882 68.0838C170.996 68.1345 171.119 68.1614 171.249 68.1655C171.739 68.1132 172.229 68.0724 172.719 68.043C172.977 67.7416 173.085 67.7825 173.046 68.1655C173.018 68.5559 172.95 68.9373 172.842 69.3089C172.767 69.0949 172.671 68.8907 172.556 68.6964C171.99 68.5869 171.418 68.5461 170.841 68.5738C170.803 69.5082 170.844 70.4335 170.964 71.3506C171.644 71.67 172.324 71.67 173.005 71.3506C173.123 71.1424 173.218 70.9243 173.291 70.6973C173.413 70.7667 173.468 70.8753 173.455 71.024C173.429 71.3555 173.348 71.6683 173.21 71.9632C171.898 71.9762 170.591 71.9901 169.289 72.004C169.289 71.9223 169.289 71.8407 169.289 71.759C169.538 71.8113 169.715 71.7296 169.82 71.514C169.909 70.4825 169.95 69.4477 169.943 68.4105C169.952 67.4264 169.911 66.4463 169.82 65.4704C169.596 65.3732 169.364 65.2915 169.126 65.2254C169.155 65.1698 169.183 65.1151 169.208 65.062Z" fill="#008145"/>
<path opacity="0.896" fill-rule="evenodd" clip-rule="evenodd" d="M124.043 66.287C124.338 66.2633 124.624 66.2902 124.901 66.3687C125.581 67.8934 126.262 69.4174 126.943 70.9422C127.587 69.4084 128.254 67.8836 128.944 66.3687C129.211 66.2878 129.483 66.2608 129.76 66.287C128.836 68.5999 127.842 70.8867 126.779 73.1473C126.21 73.9991 125.434 74.285 124.452 74.0048C124.164 73.9019 123.919 73.7386 123.717 73.5148C123.863 73.318 123.999 73.1138 124.125 72.9023C124.653 73.4095 125.224 73.4773 125.84 73.1065C126.089 72.7316 126.307 72.3363 126.494 71.9222C125.644 70.0544 124.828 68.176 124.043 66.287Z" fill="#008145"/>
</svg>
