<svg width="71" height="70" viewBox="0 0 71 70" fill="none" xmlns="http://www.w3.org/2000/svg">
<rect x="0.5" width="70" height="70" rx="8" fill="#345C45" fill-opacity="0.05"/>
<path d="M47.571 37.3289C44.6634 40.486 40.8002 44.2248 35.9653 48.5507L34.9809 49.3729L34.0445 48.5595C29.1742 44.2575 25.3032 40.5253 22.413 37.3574C19.6932 34.3761 18.5 31.5085 18.5 28.7236C18.5 26.492 19.2528 24.7058 20.7698 23.2303C22.2908 21.7509 24.1509 21 26.4855 21C27.7014 21 28.9169 21.2627 30.1473 21.8145C31.2584 22.3127 32.3396 23.1791 33.3688 24.5202L34.8476 26.447L36.4549 24.6259C37.7025 23.2124 38.8703 22.3054 39.9405 21.7945C41.0563 21.2618 42.211 21 43.4253 21C45.796 21 47.6796 21.7552 49.2135 23.2357C50.7436 24.7124 51.5 26.4971 51.5 28.7236C51.5 31.5043 50.3031 34.3625 47.571 37.3289Z" fill="#BBF1D1" stroke="#345C45" stroke-width="4"/>
</svg>
