<svg width="373" height="205" viewBox="0 0 373 205" fill="none" xmlns="http://www.w3.org/2000/svg">
<g clip-path="url(#clip0_1280_15170)">
<path d="M282.579 45.2496C282.609 44.3265 282.456 43.4067 282.129 42.5428C281.802 41.6789 281.308 40.8878 280.675 40.215C280.041 39.5421 279.281 39.0005 278.438 38.6214C277.595 38.2422 276.685 38.0328 275.761 38.0053L256.347 37.4262L239.887 23.6986C239.82 22.971 239.549 22.277 239.106 21.6956C238.663 21.1141 238.065 20.6685 237.381 20.4096C236.697 20.1506 235.954 20.0887 235.236 20.2308C234.519 20.3729 233.856 20.7134 233.322 21.2135C232.789 21.7136 232.407 22.3532 232.219 23.0595C232.032 23.7658 232.047 24.5105 232.262 25.2088C232.478 25.9071 232.885 26.531 233.438 27.0094C233.991 27.4878 234.667 27.8016 235.39 27.915L252.643 47.5482L274.153 51.9083C275.155 52.1116 276.19 52.0938 277.185 51.8563C278.181 51.6188 279.112 51.1673 279.914 50.5333C280.716 49.8993 281.371 49.098 281.831 48.1855C282.291 47.2729 282.547 46.2709 282.579 45.2496Z" fill="#915B63"/>
<path d="M256.21 50.1071L258.752 36.9637L258.835 36.8995C259.375 36.4795 260.029 36.2318 260.711 36.1885C261.394 36.1452 262.074 36.3084 262.663 36.6568L262.81 36.7432L279.951 37.2044L281.958 38.3837L283.116 38.1014C286.617 37.248 290.154 36.6694 292.312 38.1997C293.531 39.0639 294.222 40.5028 294.425 42.5965C294.571 44.0998 294.377 45.6166 293.856 47.0348C293.336 48.4529 292.503 49.7361 291.419 50.7893C290.336 51.8425 289.029 52.6389 287.595 53.1194C286.161 53.5999 284.638 53.7523 283.138 53.5654L282.276 53.4486L279.452 52.3096L275.086 52.8274L272.473 51.7551L256.21 50.1071Z" fill="#008145"/>
<path d="M189.832 195.414C189.89 198.143 189.513 200.864 188.715 203.476C188.687 203.57 188.654 203.665 188.62 203.76H172.177C172.412 202.604 172.785 201.48 173.288 200.413C174.657 197.512 176.891 195.029 179.097 192.563C182.136 189.166 185.101 185.796 185.571 181.378C186.775 183.212 187.736 185.194 188.43 187.275C187.581 187.589 186.801 188.067 186.135 188.681C185.95 188.853 185.755 189.105 185.85 189.344C185.939 189.545 186.185 189.612 186.403 189.657C186.928 189.757 187.453 189.858 187.978 189.953C188.391 190.036 188.81 190.114 189.229 190.192C189.597 191.91 189.799 193.658 189.832 195.414Z" fill="#E2DFDF"/>
<path d="M203.644 193.607C201.008 195.208 199.332 197.685 197.964 200.458C196.773 200.729 195.674 201.306 194.775 202.131C194.585 202.304 194.389 202.555 194.49 202.795C194.574 202.996 194.825 203.063 195.043 203.108C195.562 203.208 196.093 203.308 196.612 203.403C196.562 203.52 196.512 203.643 196.462 203.76H179.035C179.826 202.695 180.702 201.695 181.655 200.77C181.861 200.564 182.074 200.368 182.291 200.168C184.513 198.162 187.064 196.554 189.832 195.414C194.193 193.594 198.961 192.969 203.644 193.607Z" fill="#E2DFDF"/>
<path d="M181.94 203.76H166.424C166.339 202.519 166.346 201.273 166.446 200.033C166.782 196.195 167.947 192.476 169.861 189.131C171.775 185.786 174.393 182.895 177.533 180.658C176.729 183.52 177.142 186.365 177.98 189.222C177.863 189.261 177.745 189.294 177.639 189.339C176.789 189.653 176.009 190.131 175.344 190.745C175.159 190.918 174.964 191.169 175.059 191.409C175.142 191.609 175.394 191.676 175.612 191.721C176.137 191.821 176.662 191.922 177.181 192.017C177.6 192.1 178.019 192.178 178.438 192.262C178.633 192.296 178.829 192.335 179.024 192.374C179.052 192.441 179.069 192.502 179.097 192.563C180.08 195.269 181.152 197.997 181.655 200.77C181.779 201.466 181.865 202.168 181.912 202.873C181.929 203.169 181.94 203.464 181.94 203.76Z" fill="#E2DFDF"/>
<path d="M114.585 179.647C114.752 187.532 113.662 195.394 111.358 202.938C111.277 203.212 111.18 203.486 111.083 203.76H63.5742C64.2534 200.42 65.3316 197.173 66.7857 194.089C70.7393 185.708 77.1944 178.535 83.5687 171.41C92.3476 161.594 100.917 151.859 102.272 139.093C105.752 144.391 108.529 150.118 110.535 156.13C108.079 157.038 105.826 158.418 103.902 160.192C103.37 160.692 102.805 161.417 103.079 162.11C103.337 162.69 104.047 162.884 104.677 163.013C106.194 163.303 107.711 163.593 109.228 163.867C110.422 164.109 111.632 164.334 112.842 164.56C113.906 169.522 114.49 174.574 114.585 179.647Z" fill="#E2DFDF"/>
<path d="M154.494 174.425C146.877 179.051 142.036 186.207 138.082 194.218C134.641 195.001 131.465 196.668 128.867 199.054C128.319 199.553 127.754 200.279 128.044 200.972C128.286 201.552 129.013 201.745 129.642 201.874C131.143 202.165 132.676 202.455 134.177 202.729C134.031 203.067 133.886 203.422 133.741 203.76H83.3916C85.6772 200.681 88.2083 197.792 90.9601 195.121C91.5572 194.524 92.1705 193.96 92.7998 193.38C99.2181 187.586 106.588 182.941 114.586 179.647C127.185 174.386 140.963 172.583 154.494 174.425Z" fill="#E2DFDF"/>
<path d="M91.7832 203.76H46.9529C46.7081 200.175 46.7297 196.576 47.0175 192.993C48.8088 170.863 60.8635 149.78 79.0506 137.014C76.7268 145.282 77.9209 153.503 80.3416 161.756C80.0028 161.868 79.6638 161.965 79.3572 162.094C76.9021 163.003 74.6488 164.382 72.7247 166.156C72.1921 166.656 71.6274 167.381 71.9017 168.074C72.1437 168.654 72.8699 168.848 73.4993 168.977C75.0162 169.267 76.5331 169.557 78.0339 169.831C79.2442 170.073 80.4546 170.298 81.6649 170.54C82.2296 170.637 82.7945 170.75 83.3593 170.863C83.4399 171.056 83.4884 171.233 83.5691 171.411C86.4093 179.228 89.5077 187.11 90.9601 195.121C91.3196 197.131 91.5675 199.16 91.7025 201.198C91.7509 202.052 91.7832 202.906 91.7832 203.76Z" fill="#E2DFDF"/>
<path d="M286.615 179.647C286.782 187.532 285.692 195.394 283.388 202.938C283.307 203.212 283.21 203.486 283.114 203.76H235.604C236.284 200.42 237.362 197.173 238.816 194.089C242.77 185.708 249.225 178.535 255.599 171.41C264.378 161.594 272.947 151.859 274.303 139.093C277.782 144.391 280.56 150.118 282.565 156.13C280.11 157.038 277.857 158.418 275.932 160.192C275.4 160.692 274.835 161.417 275.109 162.11C275.368 162.69 276.078 162.884 276.707 163.013C278.224 163.303 279.741 163.593 281.258 163.867C282.452 164.109 283.662 164.334 284.873 164.56C285.936 169.522 286.52 174.574 286.615 179.647Z" fill="#E2DFDF"/>
<path d="M326.524 174.425C318.907 179.051 314.066 186.207 310.112 194.218C306.672 195.001 303.495 196.668 300.898 199.054C300.349 199.553 299.784 200.279 300.075 200.972C300.317 201.552 301.043 201.745 301.672 201.874C303.173 202.165 304.706 202.455 306.207 202.729C306.062 203.067 305.916 203.422 305.771 203.76H255.422C257.707 200.681 260.239 197.792 262.99 195.121C263.587 194.524 264.201 193.96 264.83 193.38C271.248 187.586 278.618 182.941 286.616 179.647C299.215 174.386 312.993 172.583 326.524 174.425Z" fill="#E2DFDF"/>
<path d="M263.812 203.76H218.982C218.737 200.175 218.759 196.576 219.047 192.993C220.838 170.863 232.893 149.78 251.08 137.014C248.756 145.282 249.95 153.503 252.371 161.756C252.032 161.868 251.693 161.965 251.387 162.094C248.931 163.003 246.678 164.382 244.754 166.156C244.221 166.656 243.657 167.381 243.931 168.074C244.173 168.654 244.899 168.848 245.529 168.977C247.045 169.267 248.562 169.557 250.063 169.831C251.274 170.073 252.484 170.298 253.694 170.54C254.259 170.637 254.824 170.75 255.389 170.863C255.469 171.056 255.518 171.233 255.598 171.411C258.439 179.228 261.537 187.11 262.989 195.121C263.349 197.131 263.597 199.16 263.732 201.198C263.78 202.052 263.812 202.906 263.812 203.76Z" fill="#E2DFDF"/>
<path d="M187.536 49.2278C187.532 57.8048 184.436 66.0935 178.813 72.5766C173.191 79.0598 165.419 83.3036 156.921 84.5314C148.422 85.7592 139.765 83.8887 132.534 79.2624C125.303 74.6361 119.982 67.5634 117.545 59.339C115.108 51.1146 115.718 42.2887 119.264 34.4768C122.809 26.6649 129.053 20.3897 136.851 16.7998C144.65 13.2099 153.483 12.5455 161.732 14.9281C169.981 17.3108 177.095 22.5812 181.772 29.7745C181.235 30.2507 180.731 30.7633 180.264 31.3087C180.141 31.4481 180.018 31.5987 179.901 31.7438C179.728 31.9558 179.566 32.1678 179.409 32.3854C179.225 32.6364 179.052 32.893 178.884 33.1553C178.056 34.4402 177.424 35.8409 177.008 37.3115C178.093 36.011 179.367 34.8807 180.789 33.9586C180.819 33.9386 180.851 33.9217 180.884 33.9083C181.024 33.8191 181.163 33.7298 181.308 33.6406C181.929 33.2627 182.573 32.9236 183.235 32.6252C183.291 32.6029 183.347 32.575 183.403 32.5527C186.127 37.689 187.547 43.4152 187.536 49.2278Z" fill="#3ECA4C"/>
<path d="M168.462 203.783C167.719 203.169 166.993 202.539 166.284 201.881C160.619 196.562 156.169 190.087 153.236 182.896C150.836 177.095 149.431 170.932 149.081 164.664C148.997 163.181 148.98 161.702 149.019 160.224C149.12 156.368 149.654 152.535 150.611 148.798C151.734 144.458 153.42 140.291 155.185 136.174C156.057 134.137 156.962 132.095 157.833 130.037C160.491 123.777 162.882 117.367 163.251 110.533C163.706 101.728 161.13 93.032 155.951 85.8918C155.319 85.0216 156.772 84.1847 157.397 85.0494C158.04 85.9253 158.643 86.8291 159.207 87.7608C163.737 95.2577 165.681 104.031 164.742 112.737C164.066 118.667 162.055 124.24 159.765 129.708C158.587 132.542 157.33 135.342 156.146 138.16C155.789 139.008 155.437 139.856 155.096 140.715C153.767 143.938 152.694 147.26 151.884 150.651C151.043 154.4 150.637 158.234 150.672 162.076C150.684 163.091 150.717 164.101 150.784 165.111C151.225 171.797 152.899 178.345 155.722 184.425C158.953 191.443 163.712 197.652 169.652 202.6C170.484 203.286 169.289 204.464 168.462 203.783Z" fill="#323232"/>
<path d="M156.14 188.301C155.23 188.05 154.329 187.773 153.437 187.47C146.164 184.951 139.515 180.909 133.933 175.615C128.353 170.368 123.912 164.031 120.885 156.999C119.373 153.476 118.258 149.795 117.562 146.025C117.185 143.883 116.918 141.723 116.763 139.554C116.568 136.915 116.501 134.259 116.467 131.615C116.395 125.623 116.49 119.498 115.579 113.562C115.095 110.121 114.161 106.758 112.803 103.559C109.525 96.0374 103.934 89.7535 96.8402 85.6179C95.9075 85.0767 96.7509 83.6318 97.6836 84.173C98.5494 84.675 99.3984 85.205 100.225 85.7741C106.953 90.4088 112.115 96.9744 115.026 104.603C116.06 107.379 116.797 110.257 117.227 113.188C118.238 119.721 118.048 126.46 118.165 133.049C118.204 135.291 118.283 137.54 118.461 139.782C118.632 142.197 118.962 144.597 119.45 146.968C120.236 150.674 121.437 154.28 123.03 157.718C126.267 164.649 130.918 170.826 136.686 175.855C142.432 180.896 149.227 184.596 156.582 186.689C157.621 186.979 157.179 188.597 156.14 188.301Z" fill="#323232"/>
<path d="M92.5789 86.3828C87.3799 88.6853 81.7058 89.7156 76.0281 89.3881C70.3504 89.0605 64.8328 87.3846 59.9338 84.4996C55.0347 81.6145 50.8956 77.6035 47.8601 72.7998C44.8247 67.9961 42.9806 62.5383 42.481 56.8798C41.9814 51.2213 42.8407 45.5254 44.9875 40.2652C47.1344 35.005 50.5069 30.3324 54.8248 26.6355C59.1427 22.9385 64.2814 20.3239 69.8141 19.0089C75.3468 17.6939 81.1138 17.7164 86.636 19.0746C86.474 19.2977 86.3177 19.5321 86.1668 19.7664C85.3387 21.0513 84.7062 22.452 84.2902 23.9226C85.3753 22.6221 86.65 21.4919 88.0715 20.5697C88.1013 20.5497 88.1331 20.5329 88.1664 20.5195C88.3061 20.4303 88.4457 20.341 88.5909 20.2517C88.8255 20.1067 89.0601 19.9728 89.3002 19.8444C94.381 21.518 99.0211 24.309 102.878 28.0118C102.341 28.3802 101.828 28.7827 101.342 29.2169C100.805 29.6931 100.301 30.2057 99.8343 30.751C99.7114 30.8905 99.5885 31.0411 99.4713 31.1862C99.2981 31.3982 99.1361 31.6102 98.9797 31.8277C98.963 31.8556 98.9406 31.8779 98.9239 31.9059C98.7619 32.129 98.6055 32.3633 98.4547 32.5976C97.6266 33.8826 96.9941 35.2833 96.578 36.7538C97.6632 35.4533 98.9379 34.3231 100.359 33.401C100.389 33.3809 100.421 33.3641 100.454 33.3507C100.594 33.2615 100.734 33.1722 100.879 33.083C101.113 32.9379 101.348 32.804 101.588 32.6757C101.985 32.4581 102.392 32.2573 102.806 32.0676C102.862 32.0453 102.917 32.0174 102.973 31.9951C103.856 31.6091 104.77 31.2975 105.705 31.0634C109.2 35.3167 111.665 40.319 112.906 45.6802C114.148 51.0414 114.133 56.6165 112.862 61.9709C111.592 67.3253 109.1 72.3143 105.582 76.5487C102.064 80.7832 97.6136 84.1487 92.5789 86.3828L92.5789 86.3828Z" fill="#3ECA4C"/>
<path d="M195.441 49.9512C193.068 58.1942 193.747 67.0151 197.353 74.7993C200.958 82.5836 207.25 88.8103 215.077 92.3398C222.903 95.8693 231.74 96.4654 239.971 94.019C248.201 91.5726 255.274 86.2474 259.895 79.0181C264.516 71.7888 266.376 63.139 265.134 54.6522C263.892 46.1654 259.632 38.4091 253.132 32.8033C246.633 27.1975 238.33 24.1171 229.743 24.126C221.156 24.1349 212.859 27.2324 206.371 32.8517C206.756 33.4579 207.098 34.0897 207.395 34.7428C207.475 34.9108 207.551 35.0895 207.624 35.2613C207.731 35.5129 207.828 35.7614 207.918 36.0137C208.026 36.3059 208.121 36.6004 208.209 36.8987C208.649 38.3624 208.869 39.8832 208.861 41.4114C208.178 39.8617 207.267 38.4232 206.156 37.1441C206.133 37.1166 206.107 37.0916 206.079 37.0695C205.97 36.9452 205.86 36.8208 205.745 36.6949C205.254 36.1602 204.729 35.6564 204.175 35.1864C204.128 35.1496 204.082 35.1073 204.034 35.0704C199.993 39.2528 197.042 44.3628 195.441 49.9512Z" fill="#3ECA4C"/>
<path d="M215.647 93.9028C214.837 94.5276 214.053 95.1859 213.296 95.8777C207.219 101.452 203.087 108.822 201.505 116.91C201.393 117.49 201.298 118.076 201.214 118.661C199.919 127.688 201.873 136.848 202.829 145.819C202.862 146.126 202.896 146.427 202.923 146.734C203.403 150.941 203.461 155.185 203.097 159.403C202.712 163.215 201.912 166.973 200.712 170.611C198.292 177.869 194.423 184.561 189.34 190.282C184.261 196.046 177.987 200.636 170.953 203.733C169.975 204.157 169.121 202.712 170.109 202.288C170.986 201.903 171.857 201.501 172.712 201.071C179.518 197.596 185.484 192.68 190.194 186.667C194.913 180.701 198.314 173.805 200.175 166.433C201.117 162.701 201.618 158.872 201.667 155.024C201.684 152.418 201.561 149.812 201.298 147.219C201.086 144.954 200.795 142.689 200.505 140.43C199.583 133.345 198.656 126.148 199.505 119.08C199.766 116.865 200.222 114.677 200.868 112.542C203.263 104.703 208.006 97.7849 214.457 92.7201C215.301 92.0618 216.496 93.2389 215.647 93.9028Z" fill="#323232"/>
<path d="M156.942 114.39C154.896 109.46 151.062 105.309 147.685 101.047C143.579 95.8544 135.129 98.25 134.576 104.839C138.366 106.083 138.858 111.55 134.523 112.298C135.63 124.226 143.25 135.225 153.843 140.753L159.082 130.975C159.79 125.409 158.737 118.71 156.942 114.39Z" fill="#323232"/>
<path d="M159.079 130.999C159.137 130.884 159.196 130.768 159.254 130.653L159.082 130.976L159.079 130.999Z" fill="#323232"/>
<path d="M196.598 156.231C194.552 151.301 190.718 147.149 187.341 142.888C183.235 137.695 174.785 140.091 174.233 146.68C178.022 147.924 178.514 153.391 174.18 154.139C175.286 166.067 182.906 177.066 193.499 182.594L198.738 172.816C199.446 167.25 198.393 160.551 196.598 156.231Z" fill="#323232"/>
<path d="M209.856 143.297C214.03 146.628 219.395 148.415 224.411 150.519C230.517 153.087 236.759 146.915 234.059 140.878C230.139 141.615 227.066 137.065 230.5 134.32C223.767 124.407 211.778 118.449 199.829 118.715L199.966 129.803C202.036 135.02 206.196 140.379 209.856 143.297Z" fill="#323232"/>
<path d="M108.25 143.855C104.076 147.186 98.7117 148.973 93.6949 151.077C87.5897 153.645 81.3469 147.473 84.0476 141.435C87.9674 142.173 91.0401 137.622 87.606 134.877C94.3395 124.965 106.329 119.006 118.277 119.272L118.14 130.361C116.07 135.578 111.91 140.936 108.25 143.855Z" fill="#323232"/>
<path d="M198.735 172.84C198.794 172.725 198.852 172.609 198.911 172.494L198.738 172.817L198.735 172.84Z" fill="#323232"/>
<path d="M266.849 71.5425L265.731 75.4477L266.29 91.626L289.749 84.3735L292.104 68.8691L266.849 71.5425Z" fill="#915B63"/>
<path d="M249.863 193.256L244.056 192.128L245.649 169.219L254.22 170.884L249.863 193.256Z" fill="#915B63"/>
<path d="M252.387 190.776L250.441 190.278L244.291 188.697L243.315 188.445L242.55 192.377L232.65 196.7C232.16 196.913 231.752 197.277 231.484 197.738C231.216 198.199 231.103 198.734 231.161 199.264C231.22 199.794 231.446 200.292 231.808 200.684C232.169 201.076 232.647 201.343 233.171 201.445L244.104 203.568L246.741 200.045L246.724 204.077L250.842 204.877L252.387 190.776Z" fill="#323232"/>
<path d="M324.57 189.334L318.874 190.93L309.999 169.746L318.405 167.39L324.57 189.334Z" fill="#915B63"/>
<path d="M325.71 185.984L323.748 186.413L317.541 187.758L316.557 187.971L317.64 191.827L310.738 200.13C310.396 200.54 310.195 201.048 310.163 201.58C310.131 202.112 310.27 202.641 310.561 203.088C310.851 203.536 311.277 203.879 311.776 204.067C312.276 204.256 312.823 204.28 313.337 204.135L324.06 201.13L324.833 196.799L326.63 200.409L330.669 199.277L325.71 185.984Z" fill="#323232"/>
<path d="M265.173 88.2788L291.671 80.1309C291.671 80.1309 290.866 82.7 294.197 88.2276C297.677 94.0017 299.65 100.741 299.725 106.047C299.889 117.527 301.428 128.946 304.871 139.9L305.17 140.851C305.17 140.851 313.195 147.39 316.559 161.361L323.477 178.326L314.883 180.887L292.376 147.014L290.238 145.285C288.682 144.027 287.414 142.45 286.521 140.66C285.628 138.87 285.13 136.91 285.061 134.911L278.3 123.726L273.275 133.573L265.15 145.117L260.191 162.119C258.696 170.039 257.456 177.454 252.327 183.676L243.047 182.437L249.534 143.509L255.348 126.592L259.708 113.906L262.38 106.131L265.173 88.2788Z" fill="#323232"/>
<path d="M263.551 80.1353C263.197 82.3652 263.77 84.4281 263.483 87.0619C263.435 87.4982 262.32 88.5195 262.286 88.953C262.204 89.9864 263.024 90.4134 263.049 91.3933C263.069 92.1583 262.269 93.4919 262.378 94.1953C263.525 101.609 270.204 104.901 294.706 89.2276C294.706 89.2276 296.874 87.9282 295.378 85.2652C294.979 84.5552 296.722 83.7286 296.874 82.7305C296.989 81.972 296.038 80.9858 296.161 80.1316C296.306 79.1234 296.456 78.0534 296.605 76.9333C298.559 62.3173 300.592 39.1685 294.913 33.3702L291.707 27.4707L279.695 29.5126L279.653 34.5738L271.111 43.4712C271.111 43.4712 262.835 51.9867 265.651 60.2071C267.693 68.1089 266.934 71.6525 263.551 80.1353Z" fill="#008145"/>
<path d="M288.072 46.0773C287.185 45.8172 286.255 45.7344 285.336 45.8336C284.417 45.9329 283.526 46.2123 282.715 46.6558C281.904 47.0992 281.189 47.6982 280.61 48.4182C280.031 49.1382 279.599 49.9653 279.341 50.8519L273.909 69.4775L256.475 81.9477C255.753 81.8305 255.012 81.9182 254.337 82.2006C253.663 82.4831 253.081 82.9491 252.658 83.5456C252.236 84.142 251.989 84.845 251.947 85.5745C251.905 86.304 252.068 87.0307 252.419 87.6719C252.77 88.3131 253.294 88.8431 253.931 89.2015C254.569 89.5599 255.294 89.7323 256.025 89.6992C256.756 89.666 257.463 89.4286 258.065 89.014C258.668 88.5994 259.141 88.0242 259.433 87.3539L282.789 75.598L292.412 55.8953C292.86 54.9769 293.103 53.9718 293.122 52.9501C293.142 51.9284 292.938 50.9148 292.524 49.9799C292.111 49.0451 291.499 48.2116 290.73 47.5375C289.961 46.8635 289.054 46.3652 288.072 46.0773Z" fill="#915B63"/>
<path d="M286.165 72.7926L274.064 67.0373L274.023 66.9409C273.751 66.3136 273.675 65.6192 273.805 64.9482C273.934 64.2772 274.263 63.6607 274.748 63.179L274.869 63.058L279.616 46.6006L281.263 44.9564L281.28 43.766C281.331 40.167 281.658 36.6018 283.682 34.8996C284.826 33.9374 286.394 33.6304 288.474 33.9592C289.967 34.1953 291.389 34.7638 292.632 35.6226C293.876 36.4814 294.911 37.6086 295.66 38.9208C296.409 40.233 296.852 41.6965 296.958 43.2031C297.064 44.7098 296.83 46.2209 296.272 47.6248L295.943 48.4289L294.131 50.8729L293.537 55.2248L291.842 57.482L286.165 72.7926Z" fill="#008145"/>
<path d="M269.919 29.2803L272.486 29.0558C272.192 28.0446 272.009 27.0045 271.941 25.9537C272.529 27.0855 273.342 28.0856 274.33 28.893L289.052 27.5953L298.009 9.54061C295.877 2.5445 290.355 -1.57341 283.387 0.567412C282.967 0.696454 282.538 0.850359 282.11 1.02606C278.152 1.55339 274.553 3.59423 272.07 6.7189C269.588 9.84358 268.417 13.8083 268.803 17.7784C265.36 24.1528 268.03 26.458 269.919 29.2803Z" fill="#323232"/>
<path d="M280.055 26.2085C285.642 26.2085 290.172 21.6843 290.172 16.1033C290.172 10.5223 285.642 5.99805 280.055 5.99805C274.467 5.99805 269.938 10.5223 269.938 16.1033C269.938 21.6843 274.467 26.2085 280.055 26.2085Z" fill="#915B63"/>
<path d="M266.502 13.3122C267.586 14.0801 270.527 14.1503 273.915 13.8947C273.89 13.8306 273.87 13.7649 273.85 13.6992C273.556 12.688 273.373 11.6478 273.304 10.5971C273.893 11.7289 274.706 12.729 275.694 13.5364C275.768 13.5967 275.842 13.6569 275.921 13.7156C278.803 13.4165 281.805 12.9479 284.142 12.534C284.309 18.5795 279.781 24.9721 281.466 28.1609L299.951 26.3654C299.41 24.9912 299.087 23.5413 298.993 22.0679C299.883 23.7772 301.276 25.1736 302.984 26.0698L304.555 25.9191L304.327 23.6156C305.323 13.2903 297.119 5.55388 286.913 3.38412C284.643 1.53527 281.733 0.659202 278.818 0.947442L276.51 1.16964C275.055 1.31052 273.642 1.73635 272.351 2.42282C271.06 3.10929 269.918 4.04295 268.988 5.1705C268.059 6.29805 267.361 7.5974 266.935 8.99435C266.508 10.3913 266.361 11.8585 266.502 13.3122Z" fill="#323232"/>
<path d="M282.141 1.53554C284.455 1.94531 286.553 3.15239 288.068 4.94685C289.584 6.74131 290.422 9.00961 290.436 11.3573C290.442 11.5257 290.513 11.6853 290.635 11.8023C290.756 11.9194 290.918 11.9849 291.087 11.9849C291.255 11.9849 291.418 11.9194 291.539 11.8023C291.66 11.6853 291.731 11.5257 291.737 11.3573C291.723 8.7256 290.791 6.18106 289.104 4.16028C287.416 2.1395 285.076 0.768491 282.487 0.282525C281.668 0.135257 281.317 1.38729 282.141 1.53554H282.141Z" fill="#BBF1D1"/>
<path d="M372.484 204.866L0.516806 205C0.380121 204.999 0.249174 204.945 0.152663 204.848C0.0561523 204.751 0.00195312 204.62 0.00195312 204.484C0.00195312 204.347 0.0561523 204.216 0.152663 204.12C0.249174 204.023 0.380121 203.968 0.516806 203.968L372.484 203.835C372.621 203.835 372.752 203.889 372.849 203.986C372.946 204.083 373 204.214 373 204.351C373 204.487 372.946 204.619 372.849 204.715C372.752 204.812 372.621 204.866 372.484 204.866Z" fill="#E2DFDF"/>
<path d="M215.357 76.002V54.4173L229.87 43.625L244.202 54.4173V76.002H233.656V63.1861H225.859V76.002H215.357ZM218.062 73.3039H223.155V60.488H236.36V73.3039H241.498V55.7664L229.87 46.9976L218.062 55.7664V73.3039Z" fill="#BBF1D1"/>
<path d="M146.3 64.4222V60.6194H140.795V58.0842H144.606V40.338H140.795V37.8028H146.3V34H148.841V37.8028H153.5V34H156.041V37.9295C157.565 38.2394 158.793 38.9859 159.725 40.1689C160.657 41.352 161.122 42.676 161.122 44.1407C161.122 44.9294 160.967 45.7111 160.657 46.4858C160.346 47.2604 159.894 47.9576 159.301 48.5773C160.403 49.1407 161.264 49.9364 161.885 50.9646C162.506 51.9927 162.816 53.0984 162.816 54.2815C162.816 56.0279 162.202 57.5208 160.974 58.7603C159.746 59.9997 158.243 60.6194 156.464 60.6194H156.041V64.4222H153.5V60.6194H148.841V64.4222H146.3ZM147.147 47.9435H154.77C155.843 47.9435 156.746 47.5703 157.48 46.8238C158.215 46.0773 158.582 45.183 158.582 44.1407C158.582 43.0703 158.215 42.1689 157.48 41.4365C156.746 40.7041 155.843 40.338 154.77 40.338H147.147V47.9435ZM147.147 58.0842H156.464C157.537 58.0842 158.44 57.711 159.174 56.9645C159.908 56.218 160.276 55.3237 160.276 54.2815C160.276 53.211 159.908 52.3096 159.174 51.5773C158.44 50.8449 157.537 50.4787 156.464 50.4787H147.147V58.0842Z" fill="#BBF1D1"/>
<path d="M78.0843 69.8609C75.3429 69.8609 72.6994 69.055 70.1538 67.4432C67.6083 65.8314 65.6012 63.9876 64.1326 61.9118V66.9304H61.9297V58.1388H70.7413V60.3367H65.7113C66.9596 62.2171 68.7403 63.9082 71.0534 65.4101C73.3664 66.912 75.71 67.663 78.0843 67.663C79.9935 67.663 81.7986 67.2967 83.4997 66.564C85.2009 65.8314 86.6817 64.8362 87.9423 63.5786C89.2028 62.3209 90.2002 60.8434 90.9345 59.1461C91.6688 57.4489 92.036 55.6478 92.036 53.7429H94.2389C94.2389 55.9653 93.8167 58.0533 92.9722 60.007C92.1278 61.9607 90.9712 63.6701 89.5026 65.1354C88.034 66.6007 86.3207 67.7546 84.3625 68.5971C82.4044 69.4396 80.3117 69.8609 78.0843 69.8609ZM61.9297 53.7429C61.9297 51.5206 62.3519 49.4326 63.1964 47.4789C64.0408 45.5252 65.1973 43.8158 66.6659 42.3505C68.1345 40.8852 69.8479 39.7313 71.806 38.8888C73.7642 38.0463 75.8569 37.625 78.0843 37.625C80.8257 37.625 83.4691 38.4309 86.0147 40.0427C88.5603 41.6545 90.5674 43.4983 92.036 45.5741V40.5555H94.2389V49.3471H85.4273V47.1492H90.4572C89.2089 45.2688 87.4344 43.5777 85.1336 42.0758C82.8328 40.5739 80.483 39.8229 78.0843 39.8229C76.1751 39.8229 74.3699 40.1892 72.6688 40.9219C70.9677 41.6545 69.4869 42.6496 68.2263 43.9073C66.9658 45.165 65.9683 46.6425 65.234 48.3398C64.4997 50.037 64.1326 51.8381 64.1326 53.7429H61.9297ZM77.0195 64.2562H79.0389V62.3514C80.5319 62.1805 81.6946 61.7226 82.5268 60.9777C83.359 60.2329 83.7751 59.2377 83.7751 57.9922C83.7751 56.7467 83.4202 55.7333 82.7104 54.9518C82.0005 54.1703 80.8012 53.4255 79.1123 52.7173C77.6927 52.1312 76.6646 51.6061 76.0282 51.1421C75.3918 50.6781 75.0737 50.0554 75.0737 49.2739C75.0737 48.5168 75.349 47.9185 75.8997 47.4789C76.4505 47.0393 77.2031 46.8196 78.1577 46.8196C78.892 46.8196 79.5284 46.9905 80.0669 47.3324C80.6054 47.6743 81.0582 48.1871 81.4253 48.8709L83.1877 48.0284C82.7716 47.1737 82.2208 46.5021 81.5355 46.0137C80.8501 45.5252 80.0424 45.2322 79.1123 45.1345V43.2663H77.093V45.1345C75.8447 45.3054 74.8595 45.7633 74.1374 46.5082C73.4154 47.253 73.0543 48.1749 73.0543 49.2739C73.0543 50.4705 73.4215 51.4229 74.1558 52.1312C74.8901 52.8394 75.9915 53.4987 77.4601 54.1093C79.1001 54.7931 80.226 55.4097 80.8379 55.9592C81.4498 56.5086 81.7558 57.1863 81.7558 57.9922C81.7558 58.7737 81.4315 59.4025 80.7828 59.8788C80.1342 60.355 79.3204 60.5931 78.3413 60.5931C77.3867 60.5931 76.5361 60.3244 75.7896 59.7872C75.0431 59.2499 74.5229 58.5173 74.2292 57.5893L72.3567 58.212C72.8708 59.3354 73.501 60.2207 74.2476 60.8678C74.9941 61.515 75.9181 61.9851 77.0195 62.2781V64.2562Z" fill="#BBF1D1"/>
</g>
<defs>
<clipPath id="clip0_1280_15170">
<rect width="373" height="205" fill="white"/>
</clipPath>
</defs>
</svg>
