<svg width="197" height="191" viewBox="0 0 197 191" fill="none" xmlns="http://www.w3.org/2000/svg">
<g clip-path="url(#clip0_1280_15350)">
<path d="M152.527 61.2669C152.206 61.1581 151.925 60.9527 151.724 60.6786C151.522 60.4045 151.409 60.0749 151.401 59.7344C151.393 59.394 151.489 59.0591 151.676 58.7753C151.864 58.4914 152.134 58.2723 152.45 58.1476L152.719 57.7672C152.718 57.728 152.717 57.6887 152.716 57.6495C152.614 53.6971 139.874 59.6302 138.243 62.6707C137.522 64.0149 137.04 65.4742 136.817 66.9838C136.374 59.4125 137.558 51.8341 140.291 44.7624C140.978 42.9886 141.764 41.2547 142.645 39.5688C143.368 38.1873 144.15 36.8406 144.991 35.5288C149.564 28.4146 155.754 22.4898 163.052 18.2411C165.798 19.4937 168.423 20.025 170.777 14.6625C171.196 13.7086 172.24 13.1485 172.769 12.2542C172.487 12.1849 172.206 12.1006 171.932 12.0136C171.847 11.9854 171.757 11.9555 171.672 11.9274L171.64 11.9165C171.34 11.8148 171.076 11.6284 170.88 11.3798C170.683 11.1312 170.563 10.8309 170.533 10.5151C170.502 10.1993 170.564 9.88152 170.709 9.59992C170.855 9.31833 171.079 9.08497 171.354 8.92793C171.525 8.83031 171.696 8.73277 171.867 8.63532C172.128 8.48361 172.392 8.33807 172.653 8.18639C172.681 8.17338 172.709 8.15875 172.736 8.14258C173.035 7.97034 173.333 7.8025 173.632 7.63026C173.486 6.91217 173.177 6.23762 172.728 5.65921C171.165 3.67936 168.052 3.41271 165.877 4.67881C163.697 5.94315 162.421 8.41231 162.04 10.9064C161.783 13.0549 161.893 15.2317 162.364 17.3433C162.199 17.4414 162.032 17.5334 161.868 17.6315C158.856 19.4368 156.028 21.5337 153.424 23.8923C155.101 20.8035 154.582 7.08275 153.585 3.83004C152.387 -0.0769289 147.048 -0.660058 145.164 2.96422C145.146 2.99933 145.128 3.03445 145.11 3.06955C145.337 3.34823 145.554 3.63464 145.762 3.92878C146.021 4.30068 146.163 4.74252 146.167 5.19641C146.172 5.6503 146.04 6.09508 145.789 6.47246C145.537 6.84985 145.178 7.14224 144.758 7.31133C144.338 7.48042 143.877 7.51832 143.435 7.42007L143.39 7.41001C137.321 11.4741 144.185 30.898 148.582 28.8549C145.484 32.468 142.867 36.4698 140.797 40.7598C139.584 43.294 138.578 45.9225 137.788 48.6194L137.811 48.5218C139.321 42.5655 130.668 29.4552 126.911 28.799C124.746 28.4209 122.805 27.5569 122.322 29.7069C122.314 29.7412 122.306 29.7755 122.299 29.8099C122.754 30.242 123.182 30.7021 123.58 31.1875C123.807 31.4662 124.024 31.7526 124.232 32.0467C124.491 32.4186 124.633 32.8605 124.637 33.3144C124.642 33.7682 124.51 34.213 124.259 34.5904C124.007 34.9678 123.648 35.2602 123.228 35.4293C122.808 35.5984 122.347 35.6363 121.905 35.538L121.86 35.5279C121.828 35.5203 121.8 35.5145 121.767 35.5069C117.613 40.9424 126.945 55.9742 136.172 55.9524L136.176 55.9541C135.628 59.7221 135.471 63.537 135.709 67.3374L147.962 72.1209C148.059 72.0015 148.153 71.876 148.246 71.7548C147.084 71.3836 145.972 70.871 144.934 70.2286C146.277 69.4645 147.624 68.6916 148.967 67.9276C148.996 67.9146 149.023 67.9 149.05 67.8838C149.733 67.4912 150.419 67.1046 151.103 66.712L151.103 66.7114C151.809 64.9655 152.288 63.1357 152.528 61.2673L152.527 61.2669ZM149.238 28.1018L149.248 28.0955L149.235 28.1106L149.238 28.1018ZM137.002 51.5844L136.989 51.3054C137.06 51.1353 137.126 50.9635 137.19 50.7856C137.209 50.737 137.219 50.6852 137.238 50.6367C137.159 50.9561 137.077 51.2738 137.003 51.595L137.002 51.5844Z" fill="#E2DFDF"/>
<path d="M131.727 63.4916L131.739 64.979H133.227C167.346 64.979 195.012 92.713 195.012 126.947C195.012 161.198 167.329 189.473 133.227 189.473H17.8403C15.2734 189.473 12.8107 188.45 10.9943 186.628C9.17764 184.806 8.15625 182.334 8.15625 179.755V64.5133C8.15625 30.1795 35.7799 2.02868 69.9844 2.04737C103.909 2.06607 131.442 29.5167 131.727 63.4916Z" stroke="#3ECA4C" stroke-width="3"/>
<path d="M133.227 62.9316C132.936 28.1386 104.738 0.0191383 69.9857 0C50.9838 0 33.9786 8.46568 22.3799 21.8263C33.3613 13.3318 46.8436 8.73444 60.7112 8.75569C95.4635 8.77485 123.661 36.8944 123.953 71.6873C158.904 71.6873 187.238 100.108 187.238 135.166C187.259 150.458 181.756 165.24 171.747 176.775C179.456 170.853 185.7 163.229 189.995 154.495C194.29 145.76 196.521 136.15 196.513 126.411C196.513 91.3521 168.179 62.9316 133.227 62.9316Z" fill="#3ECA4C"/>
<path d="M74.1892 101.871C71.6101 93.6263 65.745 86.0645 57.6337 83.2773C49.522 80.4901 37.6444 84.7359 31.5461 90.832C20.3913 101.983 19.8235 142.849 27.4873 154.955C29.0116 154.874 34.2716 154.814 35.8144 154.756L37.9969 147.46V154.684C50.0392 154.311 63.4426 164.246 75.12 154.786C76.2444 146.215 76.7684 110.116 74.1892 101.871Z" fill="#323232"/>
<path d="M56.6083 127.741C66.2161 127.741 74.0047 119.928 74.0047 110.291C74.0047 100.654 66.2161 92.8413 56.6083 92.8413C47.0005 92.8413 39.2119 100.654 39.2119 110.291C39.2119 119.928 47.0005 127.741 56.6083 127.741Z" fill="#936C6C"/>
<path d="M68.5618 87.5684C61.9166 83.5048 53.0602 83.3876 46.3099 87.2742C39.5602 91.1607 35.1947 98.8909 35.3415 106.696C45.0656 107.145 55.1522 116.305 65.6385 107.282L68.0864 101.272L69.5296 107.286C72.6857 107.286 75.8479 107.282 79.016 107.274C79.3684 99.475 75.2076 91.6321 68.5618 87.5684Z" fill="#323232"/>
<path d="M39.7539 101.097L39.7372 101.022C39.7312 100.996 39.1544 98.3312 40.3537 96.1246C41.5531 93.9179 44.1036 92.9511 44.1292 92.9416L44.2002 92.9152L44.217 92.9894C44.223 93.0161 44.7997 95.6806 43.6003 97.8873C42.4006 100.094 39.8505 101.061 39.8249 101.07L39.7539 101.097ZM44.1032 93.0946C43.6819 93.2686 41.5326 94.2331 40.4701 96.1879C39.4076 98.1428 39.768 100.47 39.8512 100.918C40.2725 100.744 42.4217 99.7791 43.4842 97.8243C44.5466 95.87 44.1864 93.5425 44.1032 93.0946Z" fill="#BBF1D1" stroke="#BBF1D1"/>
<path d="M39.7412 100.908L39.758 100.982C39.764 101.009 40.3407 103.673 39.1414 105.88C37.9421 108.086 35.3915 109.053 35.3659 109.063L35.2949 109.089L35.2781 109.015C35.2721 108.988 34.6954 106.324 35.8948 104.117C37.0945 101.91 39.6446 100.944 39.6702 100.934L39.7412 100.908ZM35.3919 108.91C35.8132 108.736 37.9625 107.771 39.025 105.816C40.0876 103.862 39.7271 101.535 39.6439 101.087C39.2226 101.261 37.0734 102.225 36.0109 104.18C34.9485 106.134 35.3087 108.462 35.3919 108.91Z" fill="#BBF1D1" stroke="#BBF1D1"/>
<path d="M44.4043 99.3478C41.8872 99.282 39.8007 101.007 39.8007 101.007C39.8007 101.007 41.7953 102.839 44.3124 102.905C46.8295 102.971 48.916 101.246 48.916 101.246C48.916 101.246 46.9213 99.4137 44.4043 99.3478Z" fill="#BBF1D1"/>
<path d="M35.0908 102.657C37.6079 102.722 39.6944 100.997 39.6944 100.997C39.6944 100.997 37.6998 99.1652 35.1827 99.0993C32.6656 99.0334 30.5791 100.759 30.5791 100.759C30.5791 100.759 32.5738 102.591 35.0908 102.657Z" fill="#BBF1D1"/>
<path d="M88.2646 128.256C97.8723 128.256 105.661 120.443 105.661 110.806C105.661 101.169 97.8723 93.3564 88.2646 93.3564C78.6568 93.3564 70.8682 101.169 70.8682 110.806C70.8682 120.443 78.6568 128.256 88.2646 128.256Z" fill="#936C6C"/>
<path d="M129.971 129.292C129.159 128.647 128.216 128.189 127.209 127.95C126.201 127.711 125.154 127.696 124.14 127.907C123.126 128.118 122.171 128.549 121.341 129.17C120.511 129.792 119.827 130.588 119.338 131.503L70.2334 148.808L75.1059 159.195L122.644 141.424C124.231 142.147 126.027 142.262 127.693 141.745C129.358 141.229 130.777 140.118 131.68 138.622C132.583 137.127 132.908 135.351 132.593 133.631C132.278 131.912 131.345 130.368 129.971 129.292Z" fill="#936C6C"/>
<path d="M77.4993 140.703L70.2451 143.851L66.368 145.536L63.8382 146.631C62.7665 146.916 61.7638 147.417 60.8914 148.103C59.3985 149.273 58.3536 150.924 57.9325 152.777C57.5115 154.63 57.7401 156.572 58.5799 158.276C59.4197 159.98 60.8193 161.341 62.5429 162.131C64.2664 162.92 66.2086 163.09 68.0422 162.61L82.8891 160.909C83.3112 160.859 83.7176 160.719 84.0809 160.497C84.4443 160.276 84.756 159.979 84.995 159.627C85.4852 158.908 90.0684 156.741 89.8469 155.901L91.8083 154.999L94.6546 154.105L105.341 149.174L103.725 143.18L105.22 135.821C104.996 134.992 80.7489 141.124 79.9737 140.757C79.5898 140.569 79.1697 140.467 78.7425 140.457C78.3153 140.448 77.8911 140.532 77.4993 140.703Z" fill="#323232"/>
<path d="M98.2929 190.093H30.4699C27.656 190.093 24.9575 188.972 22.9678 186.976C20.9781 184.98 19.8604 182.274 19.8604 179.451V154.406C19.8604 151.583 20.9781 148.876 22.9678 146.881C24.9575 144.885 27.656 143.764 30.4699 143.764L39.146 131.501H69.4309L98.2929 143.764C99.6862 143.764 101.066 144.039 102.353 144.574C103.64 145.108 104.81 145.892 105.795 146.881C106.78 147.869 107.562 149.042 108.095 150.333C108.628 151.624 108.902 153.008 108.902 154.406V179.451C108.902 180.849 108.628 182.233 108.095 183.524C107.562 184.815 106.78 185.988 105.795 186.976C104.81 187.964 103.64 188.748 102.353 189.283C101.066 189.818 99.6862 190.093 98.2929 190.093Z" fill="#008145"/>
<path d="M122.574 190.093H61.9132C60.52 190.093 59.1404 189.818 57.8531 189.283C56.5659 188.748 55.3964 187.964 54.4112 186.976C53.426 185.988 52.6445 184.815 52.1113 183.524C51.5781 182.233 51.3037 180.849 51.3037 179.451V154.406C51.3037 151.583 52.4215 148.876 54.4112 146.881C56.4008 144.885 59.0994 143.764 61.9132 143.764L77.8863 131.501H108.171L122.574 143.764C125.388 143.764 128.087 144.885 130.076 146.881C132.066 148.876 133.184 151.583 133.184 154.406V179.451C133.184 182.274 132.066 184.98 130.076 186.976C128.087 188.972 125.388 190.093 122.574 190.093Z" fill="#323232"/>
<path d="M68.0656 186.988C67.493 187.805 66.7488 188.486 65.8854 188.984C65.0219 189.481 64.0602 189.783 63.068 189.867C62.0758 189.951 61.0773 189.816 60.1426 189.472C59.208 189.127 58.3601 188.581 57.6586 187.872L15.2858 189.247L9.86796 189.422C4.29518 189.603 1.08517 183.136 4.58778 178.784L8.35121 174.109L21.8119 176.227L26.6791 176.441L57.9958 177.817C59.2612 176.714 60.886 176.115 62.5624 176.133C64.2388 176.151 65.8503 176.786 67.0915 177.916C68.3327 179.046 69.1175 180.594 69.297 182.266C69.4765 183.938 69.0383 185.618 68.0655 186.988L68.0656 186.988Z" fill="#936C6C"/>
<path d="M30.6888 134.015C30.6888 134.015 22.6117 131.959 18.7833 138.572C15.7184 143.866 5.29259 163.889 3.12831 172.106C-7.43186 197.634 17.1208 187.468 16.4339 189.876L24.648 176.352C28.2171 174.562 21.347 176.872 20.442 175.588L26.7386 168.724L33.8767 165.144L36.4959 137.115L30.6888 134.015Z" fill="#008145"/>
<path d="M60.2991 188.054C60.8717 188.872 61.6159 189.553 62.4793 190.05C63.3428 190.548 64.3045 190.849 65.2967 190.934C66.2889 191.018 67.2874 190.883 68.222 190.539C69.1567 190.194 70.0046 189.648 70.7061 188.939L113.079 190.313L118.497 190.489C124.069 190.67 127.279 184.203 123.777 179.851L120.013 175.176L106.553 177.293L101.686 177.507L70.3689 178.884C69.1035 177.781 67.4787 177.182 65.8023 177.2C64.1259 177.218 62.5144 177.852 61.2732 178.983C60.032 180.113 59.2472 181.661 59.0677 183.333C58.8882 185.005 59.3263 186.685 60.2992 188.054L60.2991 188.054Z" fill="#936C6C"/>
<path d="M97.6762 135.082C97.6762 135.082 105.753 133.026 109.582 139.639C112.647 144.933 123.072 164.956 125.237 173.173C135.797 198.7 111.244 188.535 111.931 190.943L103.717 177.418C100.148 175.628 107.018 177.939 107.923 176.655L101.626 169.791L94.4883 166.211L91.8691 138.182L97.6762 135.082Z" fill="#323232"/>
<path d="M97.3344 125.24C98.775 125.267 100.207 125.007 101.546 124.475C102.136 124.247 102.748 124.059 103.336 123.831C108.533 121.815 111.957 116.257 112.079 110.664C112.202 105.071 109.317 99.6419 105.034 96.0642C100.751 92.4866 95.2033 90.6498 89.6481 90.225C83.6643 89.7675 76.9263 91.2913 73.5826 96.2955C72.6926 97.6275 72.0701 99.2436 72.5975 100.852C72.7555 101.337 73.0376 101.772 73.4156 102.114C74.9089 103.448 76.3976 102.445 77.9198 102.356C80.0121 102.234 81.8914 103.935 82.5668 105.927C83.2423 107.92 82.9449 110.113 82.3996 112.145C81.9841 113.368 81.7222 114.638 81.6199 115.926C81.5758 116.572 81.6968 117.218 81.9713 117.804C82.2457 118.39 82.6646 118.895 83.1882 119.273C84.4956 120.066 86.2126 119.607 87.5208 118.815C88.829 118.022 89.9594 116.921 91.3725 116.338C92.7856 115.755 94.6841 115.884 95.5066 117.177C95.768 117.647 95.9449 118.16 96.0292 118.692C96.7666 122.066 96.5971 121.867 97.3344 125.24V125.24Z" fill="#E2DFDF"/>
</g>
<defs>
<clipPath id="clip0_1280_15350">
<rect width="196.026" height="191" fill="white" transform="translate(0.486328)"/>
</clipPath>
</defs>
</svg>
