<svg width="71" height="70" viewBox="0 0 71 70" fill="none" xmlns="http://www.w3.org/2000/svg">
<rect x="0.5" width="70" height="70" rx="8" fill="#345C45" fill-opacity="0.05"/>
<path d="M22.7231 22.5869L35.3369 18L48.2236 22.5869C50.1463 39.1572 46.6119 51.243 35.3369 51.4185C24.0618 51.594 18.9651 29.6623 22.7231 22.5869Z" fill="#BBF1D1"/>
<path d="M33.0783 41.0289L43.1843 30.9229L41.1458 28.9277L33.2084 36.8651L28.7843 32.4843L26.7024 34.5663L33.0783 41.0289ZM34.9867 53C30.7651 51.9301 27.2952 49.494 24.5771 45.6916C21.859 41.8892 20.5 37.7181 20.5 33.1783V22.4217L34.9867 17L49.5169 22.4217V33.1783C49.5169 37.7181 48.1506 41.8892 45.4181 45.6916C42.6855 49.494 39.2084 51.9301 34.9867 53ZM34.9867 49.4434C38.2253 48.2867 40.8783 46.2193 42.9458 43.241C45.0133 40.2627 46.047 36.9084 46.047 33.1783V24.8506L34.9867 20.6867L23.9265 24.8506V33.1783C23.9265 36.9084 24.9602 40.2627 27.0277 43.241C29.0952 46.2193 31.7482 48.2867 34.9867 49.4434Z" fill="#345C45"/>
</svg>
