<svg width="365" height="140" viewBox="0 0 365 140" fill="none" xmlns="http://www.w3.org/2000/svg">
<rect width="365" height="140" rx="6" fill="#F3F3F3"/>
<rect x="16" y="16" width="333" height="50" rx="4" fill="white"/>
<rect x="24" y="24" width="34" height="34" rx="4" fill="#E2DFDF"/>
<path d="M49.83 37.01L43.28 31.77C42 30.75 40 30.74 38.73 31.76L32.18 37.01C31.24 37.76 30.67 39.26 30.87 40.44L32.13 47.98C32.42 49.67 33.99 51 35.7 51H46.3C47.99 51 49.59 49.64 49.88 47.97L51.14 40.43C51.32 39.26 50.75 37.76 49.83 37.01ZM41.75 47C41.75 47.41 41.41 47.75 41 47.75C40.59 47.75 40.25 47.41 40.25 47V44C40.25 43.59 40.59 43.25 41 43.25C41.41 43.25 41.75 43.59 41.75 44V47Z" fill="#292D32"/>
<rect x="70" y="30" width="101.231" height="12" rx="2" fill="#F3F3F3"/>
<rect x="70" y="46" width="188" height="12" rx="2" fill="#F3F3F3"/>
<path d="M285.538 46H276.018V44.464C276.018 43.8347 276.114 43.296 276.306 42.848C276.509 42.4 276.834 42.0213 277.282 41.712C277.741 41.392 278.343 41.104 279.09 40.848L281.842 39.952C282.173 39.8347 282.429 39.7173 282.61 39.6C282.802 39.4827 282.941 39.344 283.026 39.184C283.111 39.024 283.154 38.8267 283.154 38.592C283.154 38.3253 283.09 38.096 282.962 37.904C282.845 37.712 282.626 37.568 282.306 37.472C281.986 37.3653 281.533 37.312 280.946 37.312C280.285 37.312 279.767 37.3813 279.394 37.52C279.031 37.648 278.77 37.8453 278.61 38.112C278.461 38.368 278.386 38.6933 278.386 39.088V39.296H276.034V39.088C276.034 38.384 276.199 37.7333 276.53 37.136C276.871 36.5387 277.405 36.0533 278.13 35.68C278.866 35.3067 279.831 35.12 281.026 35.12C282.103 35.12 282.973 35.2747 283.634 35.584C284.306 35.8827 284.797 36.2933 285.106 36.816C285.415 37.3387 285.57 37.9413 285.57 38.624C285.57 39.264 285.437 39.8027 285.17 40.24C284.914 40.6667 284.551 41.024 284.082 41.312C283.613 41.5893 283.058 41.8187 282.418 42L280.082 42.64C279.73 42.736 279.437 42.848 279.202 42.976C278.978 43.0933 278.813 43.2427 278.706 43.424C278.599 43.5947 278.546 43.824 278.546 44.112L281.346 43.84H285.538V46ZM291.627 46.16C290.475 46.16 289.499 45.9307 288.699 45.472C287.91 45.0133 287.307 44.3733 286.891 43.552C286.475 42.72 286.267 41.7493 286.267 40.64C286.267 39.52 286.475 38.5493 286.891 37.728C287.307 36.9067 287.91 36.2667 288.699 35.808C289.499 35.3493 290.475 35.12 291.627 35.12C292.779 35.12 293.75 35.3493 294.539 35.808C295.339 36.2667 295.947 36.9067 296.363 37.728C296.779 38.5493 296.987 39.52 296.987 40.64C296.987 41.7493 296.779 42.72 296.363 43.552C295.947 44.3733 295.339 45.0133 294.539 45.472C293.75 45.9307 292.779 46.16 291.627 46.16ZM291.627 43.824C292.31 43.824 292.854 43.7227 293.259 43.52C293.664 43.3067 293.958 42.9653 294.139 42.496C294.32 42.0267 294.411 41.408 294.411 40.64C294.411 39.872 294.32 39.2533 294.139 38.784C293.958 38.3147 293.664 37.9787 293.259 37.776C292.854 37.5627 292.31 37.456 291.627 37.456C290.944 37.456 290.4 37.5627 289.995 37.776C289.59 37.9787 289.296 38.3147 289.115 38.784C288.934 39.2533 288.843 39.872 288.843 40.64C288.843 41.408 288.934 42.0267 289.115 42.496C289.296 42.9653 289.59 43.3067 289.995 43.52C290.4 43.7227 290.944 43.824 291.627 43.824ZM303.047 46.16C301.895 46.16 300.919 45.9307 300.119 45.472C299.33 45.0133 298.727 44.3733 298.311 43.552C297.895 42.72 297.687 41.7493 297.687 40.64C297.687 39.52 297.895 38.5493 298.311 37.728C298.727 36.9067 299.33 36.2667 300.119 35.808C300.919 35.3493 301.895 35.12 303.047 35.12C304.199 35.12 305.17 35.3493 305.959 35.808C306.759 36.2667 307.367 36.9067 307.783 37.728C308.199 38.5493 308.407 39.52 308.407 40.64C308.407 41.7493 308.199 42.72 307.783 43.552C307.367 44.3733 306.759 45.0133 305.959 45.472C305.17 45.9307 304.199 46.16 303.047 46.16ZM303.047 43.824C303.73 43.824 304.274 43.7227 304.679 43.52C305.084 43.3067 305.378 42.9653 305.559 42.496C305.74 42.0267 305.831 41.408 305.831 40.64C305.831 39.872 305.74 39.2533 305.559 38.784C305.378 38.3147 305.084 37.9787 304.679 37.776C304.274 37.5627 303.73 37.456 303.047 37.456C302.364 37.456 301.82 37.5627 301.415 37.776C301.01 37.9787 300.716 38.3147 300.535 38.784C300.354 39.2533 300.263 39.872 300.263 40.64C300.263 41.408 300.354 42.0267 300.535 42.496C300.716 42.9653 301.01 43.3067 301.415 43.52C301.82 43.7227 302.364 43.824 303.047 43.824ZM318.659 46.176C318.072 46.176 317.566 46.064 317.139 45.84C316.712 45.616 316.387 45.3067 316.163 44.912C315.939 44.5067 315.827 44.0373 315.827 43.504C315.827 42.9707 315.939 42.5067 316.163 42.112C316.387 41.7067 316.712 41.392 317.139 41.168C317.566 40.944 318.072 40.832 318.659 40.832C319.256 40.832 319.763 40.944 320.179 41.168C320.606 41.392 320.931 41.7067 321.155 42.112C321.379 42.5067 321.491 42.9707 321.491 43.504C321.491 44.0373 321.379 44.5067 321.155 44.912C320.931 45.3067 320.606 45.616 320.179 45.84C319.763 46.064 319.256 46.176 318.659 46.176ZM311.763 40.448C311.176 40.448 310.67 40.336 310.243 40.112C309.827 39.888 309.507 39.5787 309.283 39.184C309.059 38.7787 308.947 38.3093 308.947 37.776C308.947 37.2427 309.059 36.7787 309.283 36.384C309.507 35.9787 309.827 35.664 310.243 35.44C310.67 35.2053 311.176 35.088 311.763 35.088C312.36 35.088 312.867 35.2053 313.283 35.44C313.71 35.664 314.035 35.9787 314.259 36.384C314.483 36.7787 314.595 37.2427 314.595 37.776C314.595 38.3093 314.483 38.7787 314.259 39.184C314.035 39.5787 313.71 39.888 313.283 40.112C312.867 40.336 312.36 40.448 311.763 40.448ZM311.763 38.88C312.19 38.88 312.483 38.7947 312.643 38.624C312.803 38.4533 312.883 38.1707 312.883 37.776C312.883 37.3813 312.803 37.0987 312.643 36.928C312.483 36.7467 312.19 36.656 311.763 36.656C311.358 36.656 311.07 36.7467 310.899 36.928C310.739 37.0987 310.659 37.3813 310.659 37.776C310.659 38.1707 310.739 38.4533 310.899 38.624C311.07 38.7947 311.358 38.88 311.763 38.88ZM318.659 44.608C319.075 44.608 319.363 44.5227 319.523 44.352C319.694 44.1813 319.779 43.8987 319.779 43.504C319.779 43.1093 319.694 42.8267 319.523 42.656C319.363 42.4747 319.075 42.384 318.659 42.384C318.243 42.384 317.95 42.4747 317.779 42.656C317.619 42.8267 317.539 43.1093 317.539 43.504C317.539 43.8987 317.619 44.1813 317.779 44.352C317.95 44.5227 318.243 44.608 318.659 44.608ZM311.827 46H309.507L318.611 35.28H320.931L311.827 46Z" fill="#3ECA4C"/>
<path d="M330 45.4999V37.4999" stroke="#3ECA4C" stroke-width="1.8" stroke-linecap="round" stroke-linejoin="round"/>
<path d="M333.35 39.85L330 36.5L326.65 39.85" stroke="#3ECA4C" stroke-width="1.8" stroke-linecap="round" stroke-linejoin="round"/>
<rect x="16" y="74" width="333" height="50" rx="4" fill="white"/>
<rect x="70" y="88" width="101.231" height="12" rx="2" fill="#F3F3F3"/>
<rect x="70" y="104" width="188" height="12" rx="2" fill="#F3F3F3"/>
<rect x="24" y="82" width="34" height="34" rx="4" fill="#E2DFDF"/>
<path d="M47.54 91.17L42.04 89.11C41.47 88.9 40.54 88.9 39.97 89.11L34.47 91.17C33.41 91.57 32.55 92.81 32.55 93.94V102.04C32.55 102.85 33.08 103.92 33.73 104.4L39.23 108.51C40.2 109.24 41.79 109.24 42.76 108.51L48.26 104.4C48.91 103.91 49.44 102.85 49.44 102.04V93.94C49.45 92.81 48.59 91.57 47.54 91.17ZM41.75 99.87V102.5C41.75 102.91 41.41 103.25 41 103.25C40.59 103.25 40.25 102.91 40.25 102.5V99.87C39.24 99.55 38.5 98.61 38.5 97.5C38.5 96.12 39.62 95 41 95C42.38 95 43.5 96.12 43.5 97.5C43.5 98.62 42.76 99.55 41.75 99.87Z" fill="#292D32"/>
</svg>
